mtllib materials.mtl
v -2.235174E-08 0.145 0
v 0.04294871 0.1362554 -0.02479649
v 0.0495929 0.1362554 0
v 0.02479644 0.1362554 -0.04294872
v -2.235174E-08 0.1362554 -0.04959297
v -0.02479649 0.1362554 -0.04294872
v -0.04294875 0.1362554 -0.02479649
v -0.04959294 0.1362554 0
v -0.04294875 0.1362554 0.02479643
v -0.02479649 0.1362554 0.04294872
v -2.980232E-08 0.1362554 0.04959291
v 0.02479643 0.1362554 0.04294872
v 0.04294871 0.1362554 0.02479643
v 0.08071719 0.1110765 -0.04660213
v 0.09320419 0.1110765 0
v 0.04660209 0.1110765 -0.08071721
v -1.490116E-08 0.1110765 -0.09320426
v -0.04660212 0.1110765 -0.08071721
v -0.08071722 0.1110765 -0.04660213
v -0.09320423 0.1110765 0
v -0.08071721 0.1110765 0.04660207
v -0.04660212 0.1110765 0.08071721
v -2.980232E-08 0.1110765 0.0932042
v 0.04660207 0.1110765 0.08071721
v 0.08071721 0.1110765 0.04660207
v 9.889901E-05 0.02659929 -5.710125E-05
v 0.0001142025 0.02659929 0
v 5.71236E-05 0.02659929 -9.888411E-05
v -7.450581E-09 0.02659929 -0.0001142025
v -5.711615E-05 0.02659929 -9.888411E-05
v -9.891391E-05 0.02659929 -5.710125E-05
v -0.0001142174 0.02659929 0
v -9.891391E-05 0.02659929 5.710125E-05
v -5.711615E-05 0.02659929 9.888411E-05
v -7.450581E-09 0.02659917 0.0001142025
v 5.710125E-05 0.02659917 9.888411E-05
v 9.892881E-05 0.02659917 5.710125E-05
v 0.01501484 -0.02072167 -0.00866884
v 0.01733766 -0.02072179 0
v 0.008668832 -0.02072179 -0.01501483
v 0 -0.02072179 -0.01733762
v -0.008668825 -0.02072179 -0.01501483
v -0.01501484 -0.02072179 -0.00866884
v -0.01733765 -0.02072179 0
v -0.01501484 -0.02072179 0.00866884
v -0.008668825 -0.02072167 0.01501483
v 0 -0.02072179 0.01733768
v 0.00866881 -0.02072179 0.01501483
v 0.01501487 -0.02072179 0.00866884
v 0.1236659 -0.02517903 -0.07139856
v 0.1427971 -0.02517891 0
v 0.07139857 -0.02517903 -0.1236659
v 7.450581E-09 -0.02517903 -0.1427971
v -0.07139855 -0.02517903 -0.1236659
v -0.1236659 -0.02517903 -0.07139856
v -0.1427971 -0.02517903 0
v -0.1236659 -0.02517903 0.07139856
v -0.07139856 -0.02517903 0.1236659
v -7.450581E-09 -0.02517891 0.1427971
v 0.07139854 -0.02517891 0.1236659
v 0.123666 -0.02517891 0.07139856
v 0.10875 -0.07249999 -0.06278682
v 0.1255737 -0.07249999 0
v 0.06278685 -0.07249999 -0.10875
v 1.490116E-08 -0.07249999 -0.1255736
v -0.06278683 -0.07249999 -0.10875
v -0.10875 -0.07249999 -0.06278682
v -0.1255737 -0.07249999 0
v -0.10875 -0.07249999 0.06278688
v -0.06278683 -0.07249999 0.10875
v 0 -0.07249999 0.1255737
v 0.06278682 -0.07249999 0.10875
v 0.10875 -0.07249999 0.06278682
v 0.08071724 -0.1110765 -0.04660207
v 0.09320423 -0.1110765 0
v 0.04660213 -0.1110765 -0.08071721
v 2.235174E-08 -0.1110765 -0.0932042
v -0.04660208 -0.1110765 -0.08071721
v -0.08071718 -0.1110765 -0.04660207
v -0.09320419 -0.1110765 0
v -0.08071718 -0.1110765 0.04660213
v -0.04660208 -0.1110765 0.08071721
v 1.490116E-08 -0.1110765 0.09320426
v 0.0466021 -0.1110765 0.08071721
v 0.08071724 -0.1110765 0.04660213
v 0.04294874 -0.1362554 -0.02479643
v 0.04959293 -0.1362554 0
v 0.02479647 -0.1362554 -0.04294866
v 2.235174E-08 -0.1362554 -0.04959285
v -0.02479643 -0.1362554 -0.04294866
v -0.04294869 -0.1362554 -0.02479643
v -0.04959288 -0.1362554 0
v -0.04294868 -0.1362554 0.02479649
v -0.02479643 -0.1362554 0.04294872
v 2.235174E-08 -0.1362554 0.04959291
v 0.02479646 -0.1362554 0.04294872
v 0.04294874 -0.1362554 0.02479649
v 2.235174E-08 -0.145 0
vn 0.1734603 0.9837435 -0.04647879
vn 0.1269817 0.9837435 -0.1269822
vn 0.04647842 0.9837435 -0.1734606
vn -0.04647876 0.9837434 -0.1734606
vn -0.126982 0.9837434 -0.126982
vn -0.1734607 0.9837434 -0.04647856
vn -0.1734606 0.9837435 0.04647844
vn -0.126982 0.9837435 0.1269818
vn -0.04647877 0.9837435 0.1734602
vn 0.04647839 0.9837435 0.1734604
vn 0.1269817 0.9837435 0.126982
vn 0.1734603 0.9837435 0.04647797
vn 0.4955721 0.8583564 -0.1327882
vn 0.3627839 0.8583563 -0.3627841
vn 0.1327881 0.8583562 -0.4955724
vn -0.1327884 0.8583562 -0.4955724
vn -0.3627842 0.8583561 -0.3627843
vn -0.4955724 0.8583561 -0.1327883
vn -0.4955724 0.8583562 0.1327882
vn -0.3627842 0.8583562 0.362784
vn -0.1327885 0.8583563 0.4955721
vn 0.1327881 0.8583564 0.4955721
vn 0.3627839 0.8583563 0.3627842
vn 0.4955721 0.8583564 0.1327878
vn 0.661382 -0.7288129 -0.1772167
vn 0.4841653 -0.7288129 -0.484165
vn 0.1772172 -0.728813 -0.6613817
vn -0.1772169 -0.7288131 -0.6613817
vn -0.4841648 -0.7288132 -0.4841651
vn -0.6613818 -0.7288131 -0.1772168
vn -0.6613818 -0.7288129 0.1772172
vn -0.4841649 -0.7288129 0.4841654
vn -0.1772189 -0.7288126 0.6613817
vn 0.1772173 -0.7288123 0.6613824
vn 0.4841652 -0.7288122 0.4841661
vn 0.6613828 -0.7288125 0.1772148
vn 0.9112513 0.3316684 -0.2441664
vn 0.667078 0.3316682 -0.6670856
vn 0.2441685 0.3316676 -0.911251
vn -0.2441695 0.3316675 -0.9112508
vn -0.6670796 0.3316678 -0.6670842
vn -0.9112508 0.3316676 -0.2441692
vn -0.9112508 0.3316676 0.2441692
vn -0.6670825 0.3316681 0.6670811
vn -0.2441666 0.3316688 0.9112511
vn 0.2441754 0.3316688 0.9112487
vn 0.6670755 0.3316686 0.667088
vn 0.9112506 0.3316683 0.2441689
vn 0.03550362 0.9993243 -0.009511867
vn 0.02598916 0.9993243 -0.02599148
vn 0.009512833 0.9993243 -0.03550315
vn -0.00951316 0.9993243 -0.03550316
vn -0.02599016 0.9993243 -0.02599017
vn -0.03550317 0.9993243 -0.009513155
vn -0.03550315 0.9993243 0.009512872
vn -0.02599147 0.9993243 0.02598916
vn -0.009511896 0.9993243 0.03550361
vn 0.009512822 0.9993243 0.03550276
vn 0.02598976 0.9993243 0.02598978
vn 0.03550276 0.9993243 0.0095128
vn 0.9112508 -0.3316679 -0.2441688
vn 0.667082 -0.331668 -0.6670817
vn 0.2441689 -0.3316681 -0.9112507
vn -0.2441687 -0.3316682 -0.9112508
vn -0.6670817 -0.3316681 -0.6670819
vn -0.9112507 -0.3316682 -0.2441688
vn -0.9112507 -0.3316681 0.244169
vn -0.6670818 -0.3316682 0.6670819
vn -0.2441688 -0.3316679 0.9112508
vn 0.2441688 -0.3316679 0.9112508
vn 0.6670818 -0.3316679 0.6670819
vn 0.9112508 -0.3316678 0.2441689
vn 0.7503996 -0.62966 -0.2010688
vn 0.5493307 -0.6296601 -0.5493305
vn 0.2010692 -0.6296603 -0.7503994
vn -0.2010688 -0.6296603 -0.7503994
vn -0.5493304 -0.6296604 -0.5493305
vn -0.7503994 -0.6296602 -0.2010689
vn -0.7503994 -0.6296602 0.2010692
vn -0.5493304 -0.6296602 0.5493308
vn -0.201069 -0.6296601 0.7503996
vn 0.201069 -0.62966 0.7503996
vn 0.5493307 -0.6296599 0.5493309
vn 0.7503998 -0.6296598 0.201069
vn 0.4955723 -0.8583563 -0.1327882
vn 0.3627842 -0.8583564 -0.3627838
vn 0.1327884 -0.8583563 -0.4955721
vn -0.132788 -0.8583565 -0.4955719
vn -0.3627838 -0.8583565 -0.3627838
vn -0.4955721 -0.8583564 -0.1327882
vn -0.495572 -0.8583564 0.1327884
vn -0.3627838 -0.8583563 0.3627842
vn -0.1327881 -0.8583563 0.4955722
vn 0.1327883 -0.8583562 0.4955723
vn 0.3627841 -0.8583561 0.3627843
vn 0.4955722 -0.8583563 0.1327884
vn 0.1734607 -0.9837435 -0.04647801
vn 0.1269821 -0.9837435 -0.1269816
vn 0.04647877 -0.9837435 -0.1734601
vn -0.04647844 -0.9837435 -0.1734605
vn -0.1269818 -0.9837435 -0.1269819
vn -0.1734604 -0.9837435 -0.04647863
vn -0.1734604 -0.9837435 0.0464791
vn -0.1269818 -0.9837435 0.1269818
vn -0.04647843 -0.9837435 0.1734604
vn 0.04647876 -0.9837434 0.1734607
vn 0.1269821 -0.9837434 0.126982
vn 0.1734607 -0.9837434 0.04647881
vt 0.05866344 0.003296898
vt 0.05950259 0.008262288
vt 0.05694594 0.008030759
vt 0.04476473 0.002840658
vt 0.04818532 0.006536447
vt 0.04591908 0.007742367
vt 0.03450052 0.01135308
vt 0.03935952 0.01267571
vt 0.03807619 0.01489903
vt 0.03095042 0.02519455
vt 0.03581372 0.02388783
vt 0.03582594 0.02645493
vt 0.03432665 0.03958574
vt 0.03794934 0.03608783
vt 0.03920287 0.03832809
vt 0.04305436 0.0506718
vt 0.04458517 0.04587431
vt 0.04675112 0.04725226
vt 0.05461233 0.05617708
vt 0.05370237 0.05122418
vt 0.05626206 0.05141918
vt 0.06611188 0.05549363
vt 0.06297691 0.05155266
vt 0.0653269 0.05051939
vt 0.07498995 0.04928601
vt 0.07036439 0.04729518
vt 0.07194676 0.04527374
vt 0.07945152 0.03878688
vt 0.07443809 0.03926097
vt 0.07485581 0.03672807
vt 0.07835065 0.02557064
vt 0.07423533 0.02847295
vt 0.0733394 0.02606724
vt 0.07110763 0.01228429
vt 0.06911148 0.01690756
vt 0.06709187 0.01532286
vt 0.0635784 -0.04268381
vt 0.0661234 -0.04234748
vt 0.06659944 -0.03733424
vt 0.06181641 -0.03796633
vt 0.01105961 -0.04520478
vt 0.01306278 -0.0468102
vt 0.01701272 -0.04368655
vt 0.01324798 -0.04066933
vt -0.01535855 -0.01100244
vt -0.01462168 -0.01346153
vt -0.009596544 -0.01313407
vt -0.01098141 -0.008512498
vt -0.01714722 0.02997639
vt -0.01758363 0.02744663
vt -0.01293928 0.02550003
vt -0.01211911 0.03025441
vt -0.003467405 0.06575492
vt -0.004902032 0.06362609
vt -0.001463052 0.05994741
vt 0.001233168 0.06394831
vt 0.02159808 0.08996735
vt 0.01939681 0.08864655
vt 0.02095395 0.08385754
vt 0.02509099 0.08633984
vt 0.05289812 0.09831887
vt 0.05033799 0.09812954
vt 0.04957427 0.093152
vt 0.05438573 0.09350782
vt 0.08153928 0.09201483
vt 0.07917312 0.09301051
vt 0.07622924 0.08892483
vt 0.08067618 0.08705355
vt 0.1007252 0.07771771
vt 0.09902172 0.0796382
vt 0.09460125 0.07722599
vt 0.09780276 0.07361668
vt 0.1100493 0.05956695
vt 0.1092842 0.06201738
vt 0.1042631 0.06163204
vt 0.1057012 0.05702673
vt 0.111068 0.03503755
vt 0.1114221 0.03758013
vt 0.106717 0.03937506
vt 0.1060515 0.03459658
vt 0.1003734 -0.001625621
vt 0.1019975 0.0003624638
vt 0.09891088 0.004341414
vt 0.09585862 0.0006050366
vt -0.0464687 0.1293842
vt -0.05127893 0.1297563
vt -0.04982834 0.1172696
vt -0.04982244 0.1172692
vt -0.0905119 0.1179869
vt -0.09493387 0.1160574
vt -0.08779138 0.105713
vt -0.08778597 0.1057154
vt -0.1174848 0.09851874
vt -0.1207038 0.09492502
vt -0.1099063 0.08848798
vt -0.1099023 0.08849239
vt -0.1299241 0.07945356
vt -0.1316489 0.0749478
vt -0.1192654 0.07278715
vt -0.1192632 0.07279266
vt -0.1341462 0.05526929
vt -0.1342019 0.05044501
vt -0.1218373 0.052712
vt -0.1218372 0.05271792
vt -0.1298808 0.01005439
vt -0.1277672 0.0057174
vt -0.1177321 0.01328821
vt -0.1177347 0.01329352
vt -0.07735803 -0.07470714
vt -0.07262788 -0.07565709
vt -0.0725608 -0.06308661
vt -0.07256661 -0.06308545
vt 0.02962087 -0.07488751
vt 0.03260102 -0.07109337
vt 0.02141028 -0.06536721
vt 0.02140663 -0.06537186
vt 0.05917945 -0.01650726
vt 0.05971571 -0.01171256
vt 0.04718675 -0.01273563
vt 0.0471861 -0.0127415
vt 0.05616527 0.03855179
vt 0.05493311 0.04321639
vt 0.04361996 0.03773604
vt 0.04362147 0.03773033
vt 0.03666218 0.08547553
vt 0.0338902 0.08942433
vt 0.02517653 0.08036378
vt 0.02517993 0.08035894
vt 0.001288751 0.118507
vt -0.00281763 0.1210396
vt -0.007243565 0.1092739
vt -0.007238537 0.1092708
vt 0.0230618 0.1333537
vt 0.02305699 0.1333571
vt 0.01977953 0.1295339
vt 0.02050993 0.1290124
vt -0.119578 6.035275E-05
vt -0.1195799 5.475445E-05
vt -0.1149698 -0.001971595
vt -0.1146828 -0.001121253
vt -0.106544 0.02534776
vt -0.1065457 0.02534211
vt -0.1018879 0.02342789
vt -0.1016216 0.02428492
vt -0.09247044 0.06619261
vt -0.09247272 0.06618716
vt -0.08801802 0.06383876
vt -0.08767141 0.06466658
vt -0.07080018 0.1070824
vt -0.0708034 0.1070774
vt -0.06683771 0.1039738
vt -0.06634931 0.1047267
vt -0.02967856 0.1396692
vt -0.0296832 0.1396655
vt -0.0269158 0.1354583
vt -0.0262126 0.1360159
vt 0.04395562 0.1441025
vt 0.04394973 0.1441019
vt 0.0440288 0.1390667
vt 0.04492138 0.1391601
vt 0.1065894 0.1086729
vt 0.1065843 0.1086758
vt 0.1036962 0.1045505
vt 0.1044741 0.1041029
vt 0.1245273 0.08643781
vt 0.1245237 0.08644249
vt 0.1202762 0.08373737
vt 0.1208234 0.08302604
vt 0.1246146 0.08693038
vt 0.124612 0.08693572
vt 0.1198866 0.08519515
vt 0.1202701 0.08438376
vt 0.1193457 0.09400961
vt 0.1193438 0.09401522
vt 0.1144454 0.09284709
vt 0.11473 0.09199597
vt 0.1088135 0.09914246
vt 0.1088118 0.09914812
vt 0.1038805 0.09812738
vt 0.1041395 0.0972681
vt 0.05624866 0.0268325
vt 0.05714306 0.02690665
vt 0.05937723 0.03926011
vt 0.05201077 0.03864943
vt 0.05487937 0.02683643
vt 0.05568742 0.02644593
vt 0.0638876 0.03595154
vt 0.05723229 0.03916782
vt 0.05393761 0.02774026
vt 0.05443702 0.02699458
vt 0.06631963 0.03104468
vt 0.0622064 0.03718625
vt 0.05369144 0.0292784
vt 0.05374874 0.02838277
vt 0.06605799 0.0259166
vt 0.06558599 0.03329324
vt 0.05420071 0.0309981
vt 0.05380418 0.03019299
vt 0.06324827 0.02192204
vt 0.06651418 0.02855313
vt 0.05530835 0.03242099
vt 0.05456533 0.03191763
vt 0.0586784 0.02005668
vt 0.06479807 0.02420243
vt 0.05670266 0.03318646
vt 0.05580806 0.03311483
vt 0.05353914 0.02076771
vt 0.06090728 0.02135765
vt 0.05801377 0.033128
vt 0.05720001 0.03350648
vt 0.04914178 0.02388024
vt 0.05584408 0.02076306
vt 0.05891009 0.03228099
vt 0.05838964 0.03301214
vt 0.04662723 0.02862523
vt 0.05091371 0.02260331
vt 0.05916785 0.0308544
vt 0.05907969 0.03174752
vt 0.04669271 0.03378768
vt 0.04741884 0.02643171
vt 0.05871615 0.02918934
vt 0.0590873 0.03000646
vt 0.04938908 0.03797792
vt 0.04633222 0.0312479
vt 0.05765446 0.02770959
vt 0.05838742 0.02822749
vt 0.05404147 0.0400051
vt 0.04800467 0.03573959
vt -0.04030875 0.1434126
vt -0.04766028 0.1441824
vt -0.04773934 0.1391473
vt -0.04127453 0.1384703
vt -0.1032308 0.110252
vt -0.1096375 0.1065655
vt -0.1067494 0.1024401
vt -0.1011154 0.1056821
vt -0.1220292 0.08918273
vt -0.1265362 0.08332401
vt -0.1222887 0.08061889
vt -0.1183253 0.08577096
vt -0.122757 0.09014343
vt -0.1259158 0.08346067
vt -0.1211904 0.0817201
vt -0.1184126 0.08759682
vt -0.1178819 0.09742045
vt -0.1202262 0.09041036
vt -0.1153278 0.08924223
vt -0.1132662 0.0954068
vt -0.1074527 0.1025955
vt -0.1095859 0.0955183
vt -0.1046546 0.09449755
vt -0.1027788 0.1007212
vt -0.01987114 0.1352539
vt -0.025887 0.1309589
vt -0.02260962 0.1271356
vt -0.01731936 0.1309126
vt 0.1204707 -0.003542221
vt 0.118107 0.003461391
vt 0.1134969 0.001435028
vt 0.1155755 -0.004723841
vt 0.107349 0.02172457
vt 0.1051555 0.02878333
vt 0.1004977 0.02686911
vt 0.1024267 0.02066174
vt 0.09361635 0.06266238
vt 0.09076165 0.06948061
vt 0.08630694 0.0671322
vt 0.08881734 0.06113636
vt 0.07255583 0.1038128
vt 0.06853335 0.1100142
vt 0.06456767 0.1069105
vt 0.06810497 0.1014571
vt 0.03238632 0.1371309
vt 0.02659462 0.1417237
vt 0.02382722 0.1375165
vt 0.02892036 0.1334777
vt -0.04525629 0.1273343
vt -0.05173489 0.1278635
vt -0.05130411 0.1228461
vt -0.04649552 0.1224534
vt -0.08987392 0.1123604
vt -0.09578393 0.1096541
vt -0.09295482 0.1054881
vt -0.08856825 0.1074968
vt -0.1133122 0.09416091
vt -0.1176062 0.089281
vt -0.1133249 0.08662965
vt -0.1101378 0.09025165
vt -0.1220412 0.08203839
vt -0.1245494 0.07604165
vt -0.1196451 0.07489843
vt -0.1177834 0.07934937
vt -0.1247971 0.06815805
vt -0.1254856 0.06169442
vt -0.1204592 0.06200159
vt -0.1199482 0.06679906
vt -0.1253962 0.03557032
vt -0.1237159 0.02929107
vt -0.1191356 0.03138395
vt -0.1203827 0.03604459
vt -0.08622701 -0.06887493
vt -0.08001822 -0.07079927
vt -0.0793484 -0.06580821
vt -0.08395675 -0.06437992
vt 0.04994988 -0.06958102
vt 0.05273771 -0.06370904
vt 0.04789266 -0.06233617
vt 0.04582346 -0.06669452
vt 0.06736954 -0.01002864
vt 0.06730814 -0.003528763
vt 0.06235065 -0.004413412
vt 0.06239622 -0.009237803
vt 0.06038217 0.0422328
vt 0.05842493 0.04843131
vt 0.05394202 0.04613723
vt 0.05539474 0.04153653
vt 0.04044741 0.0871806
vt 0.036709 0.09249818
vt 0.03312863 0.08895696
vt 0.03590337 0.08501012
vt 0.00482675 0.1188995
vt -0.0006396978 0.1224166
vt -0.002621955 0.1177873
vt 0.001435395 0.1151768
vt -0.04927501 0.09719855
vt -0.05408647 0.09755437
vt -0.05332275 0.09257683
vt -0.05076263 0.0923875
vt -0.07780303 0.09266481
vt -0.08224995 0.09079354
vt -0.07930608 0.08670785
vt -0.07693993 0.08770353
vt -0.09763679 0.07991854
vt -0.1008383 0.07630922
vt -0.09641783 0.07389702
vt -0.09471434 0.0758175
vt -0.1081363 0.06284146
vt -0.1095744 0.05823614
vt -0.1045533 0.0578508
vt -0.1037882 0.06030123
vt -0.1107359 0.03881529
vt -0.1100703 0.03403681
vt -0.1053653 0.03583174
vt -0.1057194 0.03837432
vt -0.1020533 0.001774439
vt -0.09900106 -0.001961941
vt -0.09591444 0.00201701
vt -0.09753852 0.004005095
vt -0.06713101 -0.04135691
vt -0.06234799 -0.04198901
vt -0.06282403 -0.03697576
vt -0.06536902 -0.03663943
vt -0.01447513 -0.04685279
vt -0.01071039 -0.04383558
vt -0.01466033 -0.04071192
vt -0.0166635 -0.04231734
vt 0.01348339 -0.01429878
vt 0.01486825 -0.009677201
vt 0.00984311 -0.009349743
vt 0.009106242 -0.01180883
vt 0.01693784 0.02618981
vt 0.01611767 0.03094419
vt 0.01147332 0.02899758
vt 0.01190972 0.02646783
vt 0.004827912 0.06221501
vt 0.002131692 0.0662159
vt -0.001307288 0.06253723
vt 0.0001273394 0.06040839
vt -0.01886628 0.08733688
vt -0.02300331 0.08981917
vt -0.02456046 0.08503017
vt -0.02235918 0.08370937
vt -0.05335815 0.05574221
vt -0.05591785 0.05593721
vt -0.05500787 0.0509843
vt -0.06480068 0.05570054
vt -0.06715067 0.05466727
vt -0.0640157 0.05072631
vt -0.07393233 0.05008817
vt -0.07551471 0.04806674
vt -0.07088915 0.04607591
vt -0.07890884 0.03999829
vt -0.07932656 0.03746538
vt -0.07431313 0.03793947
vt -0.07848154 0.02689156
vt -0.07758561 0.02448585
vt -0.07347029 0.02738816
vt -0.07190867 0.01334287
vt -0.06988905 0.01175817
vt -0.06789291 0.01638144
vt -0.05991123 0.003749586
vt -0.05735456 0.003518059
vt -0.05819372 0.008483446
vt -0.04605685 0.002536407
vt -0.04379061 0.003742327
vt -0.04721119 0.007438115
vt -0.03543522 0.01041056
vt -0.0341519 0.01263389
vt -0.0390109 0.01395651
vt -0.03128263 0.02390939
vt -0.03129485 0.02647648
vt -0.03615815 0.02516976
vt -0.03399513 0.03830041
vt -0.03524866 0.04054067
vt -0.03887136 0.03704276
vt -0.04215296 0.04969735
vt -0.04431892 0.0510753
vt -0.04584973 0.04627781
o group2007005856
g mesh2007005856
usemtl mat21
f 3/3/1 2/2/1 1/1/1
f 2/6/2 4/5/2 1/4/2
f 4/9/3 5/8/3 1/7/3
f 5/12/4 6/11/4 1/10/4
f 6/15/5 7/14/5 1/13/5
f 7/18/6 8/17/6 1/16/6
f 8/21/7 9/20/7 1/19/7
f 9/24/8 10/23/8 1/22/8
f 10/27/9 11/26/9 1/25/9
f 11/30/10 12/29/10 1/28/10
f 12/33/11 13/32/11 1/31/11
f 13/36/12 3/35/12 1/34/12
f 15/40/13 14/39/13 2/38/13 3/37/13
f 14/44/14 16/43/14 4/42/14 2/41/14
f 16/48/15 17/47/15 5/46/15 4/45/15
f 17/52/16 18/51/16 6/50/16 5/49/16
f 18/56/17 19/55/17 7/54/17 6/53/17
f 19/60/18 20/59/18 8/58/18 7/57/18
f 20/64/19 21/63/19 9/62/19 8/61/19
f 21/68/20 22/67/20 10/66/20 9/65/20
f 22/72/21 23/71/21 11/70/21 10/69/21
f 23/76/22 24/75/22 12/74/22 11/73/22
f 24/80/23 25/79/23 13/78/23 12/77/23
f 25/84/24 15/83/24 3/82/24 13/81/24
usemtl mat3
f 27/88/25 26/87/25 14/86/25 15/85/25
f 26/92/26 28/91/26 16/90/26 14/89/26
f 28/96/27 29/95/27 17/94/27 16/93/27
f 29/100/28 30/99/28 18/98/28 17/97/28
f 30/104/29 31/103/29 19/102/29 18/101/29
f 31/108/30 32/107/30 20/106/30 19/105/30
f 32/112/31 33/111/31 21/110/31 20/109/31
f 33/116/32 34/115/32 22/114/32 21/113/32
f 34/120/33 35/119/33 23/118/33 22/117/33
f 35/124/34 36/123/34 24/122/34 23/121/34
f 36/128/35 37/127/35 25/126/35 24/125/35
f 37/132/36 27/131/36 15/130/36 25/129/36
usemtl mat18
f 39/136/37 38/135/37 26/134/37 27/133/37
f 38/140/38 40/139/38 28/138/38 26/137/38
f 40/144/39 41/143/39 29/142/39 28/141/39
f 41/148/40 42/147/40 30/146/40 29/145/40
f 42/152/41 43/151/41 31/150/41 30/149/41
f 43/156/42 44/155/42 32/154/42 31/153/42
f 44/160/43 45/159/43 33/158/43 32/157/43
f 45/164/44 46/163/44 34/162/44 33/161/44
f 46/168/45 47/167/45 35/166/45 34/165/45
f 47/172/46 48/171/46 36/170/46 35/169/46
f 48/176/47 49/175/47 37/174/47 36/173/47
f 49/180/48 39/179/48 27/178/48 37/177/48
usemtl mat9
f 51/184/49 50/183/49 38/182/49 39/181/49
f 50/188/50 52/187/50 40/186/50 38/185/50
f 52/192/51 53/191/51 41/190/51 40/189/51
f 53/196/52 54/195/52 42/194/52 41/193/52
f 54/200/53 55/199/53 43/198/53 42/197/53
f 55/204/54 56/203/54 44/202/54 43/201/54
f 56/208/55 57/207/55 45/206/55 44/205/55
f 57/212/56 58/211/56 46/210/56 45/209/56
f 58/216/57 59/215/57 47/214/57 46/213/57
f 59/220/58 60/219/58 48/218/58 47/217/58
f 60/224/59 61/223/59 49/222/59 48/221/59
f 61/228/60 51/227/60 39/226/60 49/225/60
usemtl mat20
f 63/232/61 62/231/61 50/230/61 51/229/61
f 62/236/62 64/235/62 52/234/62 50/233/62
f 64/240/63 65/239/63 53/238/63 52/237/63
f 65/244/64 66/243/64 54/242/64 53/241/64
f 66/248/65 67/247/65 55/246/65 54/245/65
f 67/252/66 68/251/66 56/250/66 55/249/66
f 68/256/67 69/255/67 57/254/67 56/253/67
f 69/260/68 70/259/68 58/258/68 57/257/68
f 70/264/69 71/263/69 59/262/69 58/261/69
f 71/268/70 72/267/70 60/266/70 59/265/70
f 72/272/71 73/271/71 61/270/71 60/269/71
f 73/276/72 63/275/72 51/274/72 61/273/72
f 75/280/73 74/279/73 62/278/73 63/277/73
f 74/284/74 76/283/74 64/282/74 62/281/74
f 76/288/75 77/287/75 65/286/75 64/285/75
f 77/292/76 78/291/76 66/290/76 65/289/76
f 78/296/77 79/295/77 67/294/77 66/293/77
f 79/300/78 80/299/78 68/298/78 67/297/78
f 80/304/79 81/303/79 69/302/79 68/301/79
f 81/308/80 82/307/80 70/306/80 69/305/80
f 82/312/81 83/311/81 71/310/81 70/309/81
f 83/316/82 84/315/82 72/314/82 71/313/82
f 84/320/83 85/319/83 73/318/83 72/317/83
f 85/324/84 75/323/84 63/322/84 73/321/84
f 87/328/85 86/327/85 74/326/85 75/325/85
f 86/332/86 88/331/86 76/330/86 74/329/86
f 88/336/87 89/335/87 77/334/87 76/333/87
f 89/340/88 90/339/88 78/338/88 77/337/88
f 90/344/89 91/343/89 79/342/89 78/341/89
f 91/348/90 92/347/90 80/346/90 79/345/90
f 92/352/91 93/351/91 81/350/91 80/349/91
f 93/356/92 94/355/92 82/354/92 81/353/92
f 94/360/93 95/359/93 83/358/93 82/357/93
f 95/364/94 96/363/94 84/362/94 83/361/94
f 96/368/95 97/367/95 85/366/95 84/365/95
f 97/372/96 87/371/96 75/370/96 85/369/96
f 98/375/97 86/374/97 87/373/97
f 98/378/98 88/377/98 86/376/98
f 98/381/99 89/380/99 88/379/99
f 98/384/100 90/383/100 89/382/100
f 98/387/101 91/386/101 90/385/101
f 98/390/102 92/389/102 91/388/102
f 98/393/103 93/392/103 92/391/103
f 98/396/104 94/395/104 93/394/104
f 98/399/105 95/398/105 94/397/105
f 98/402/106 96/401/106 95/400/106
f 98/405/107 97/404/107 96/403/107
f 98/408/108 87/407/108 97/406/108
